<svg xmlns="http://www.w3.org/2000/svg" xmlns:xlink="http://www.w3.org/1999/xlink" width="356" height="467" viewBox="0 0 356 467">
  <defs>
    <clipPath id="clip-path">
      <rect id="Rectangle_13" data-name="Rectangle 13" width="356" height="467" transform="translate(639.601 70.5)" fill="none" stroke="#707070" stroke-width="1"/>
    </clipPath>
  </defs>
  <g id="Mask_Group_1" data-name="Mask Group 1" transform="translate(-639.601 -70.5)" clip-path="url(#clip-path)">
    <g id="aboutme-img" transform="translate(640 136.256)">
      <path id="Path_68" data-name="Path 68" d="M364.455,268.24v92.4l15.455,25.187,1.176,1.916h60.981l1.232-119.5Z" transform="translate(-106.576 -78.426)" fill="#e6e6e6"/>
      <path id="Path_69" data-name="Path 69" d="M364.455,268.24v92.4l15.455,25.187.948-117.583Z" transform="translate(-106.576 -78.426)" opacity="0.1"/>
      <path id="Path_70" data-name="Path 70" d="M123.81,264.757v92.4l-15.455,25.187-1.176,1.915H46.2l-1.232-119.5Z" transform="translate(-13.149 -77.407)" fill="#e6e6e6"/>
      <path id="Path_71" data-name="Path 71" d="M149.616,264.757v92.4l-15.455,25.187-.948-117.584Z" transform="translate(-38.955 -77.407)" opacity="0.1"/>
      <path id="Path_72" data-name="Path 72" d="M365.043,254.509v5.543H33.648v-8.008l30.8-16.015H337.94Z" transform="translate(-9.84 -69.007)" fill="#e6e6e6"/>
      <path id="Path_73" data-name="Path 73" d="M365.043,261.128v5.543H33.648v-8.008Z" transform="translate(-9.84 -75.625)" opacity="0.1"/>
      <path id="Path_74" data-name="Path 74" d="M92.025,299.538H77.241l-6.16-4.312H98.8Z" transform="translate(-20.786 -86.317)" fill="#3f3d56"/>
      <path id="Path_75" data-name="Path 75" d="M92.025,324.784H77.241l-6.16-4.312H98.8Z" transform="translate(-20.786 -93.7)" fill="#3f3d56"/>
      <path id="Path_76" data-name="Path 76" d="M92.025,360.477H77.241l-6.16-4.312H98.8Z" transform="translate(-20.786 -104.137)" fill="#3f3d56"/>
      <path id="Path_77" data-name="Path 77" d="M92.025,396.169H77.241l-6.16-4.312H98.8Z" transform="translate(-20.786 -114.574)" fill="#3f3d56"/>
      <path id="Path_78" data-name="Path 78" d="M417.369,303.02h14.784l6.16-4.312H410.593Z" transform="translate(-120.068 -87.335)" fill="#3f3d56"/>
      <path id="Path_79" data-name="Path 79" d="M417.369,328.266h14.784l6.16-4.312H410.593Z" transform="translate(-120.068 -94.718)" fill="#3f3d56"/>
      <path id="Path_80" data-name="Path 80" d="M417.369,363.959h14.784l6.16-4.312H410.593Z" transform="translate(-120.068 -105.155)" fill="#3f3d56"/>
      <path id="Path_81" data-name="Path 81" d="M417.369,399.651h14.784l6.16-4.312H410.593Z" transform="translate(-120.068 -115.593)" fill="#3f3d56"/>
      <path id="Path_82" data-name="Path 82" d="M553.534,166.312H429.078a4.706,4.706,0,0,0-4.707,4.707v83.836a4.706,4.706,0,0,0,4.707,4.707h47.244l-1.77,11.3s-10.115,5.374-3,5.532,40.619,0,40.619,0,6.48,0-3.793-5.69l-1.665-11.143h46.823a4.706,4.706,0,0,0,4.707-4.707V171.018a4.706,4.706,0,0,0-4.707-4.707Z" transform="translate(-246.165 -106.135)" fill="#3f3d56"/>
      <rect id="Rectangle_14" data-name="Rectangle 14" width="124.861" height="69.859" transform="translate(182.71 65.155)" fill="#f2f2f2"/>
      <circle id="Ellipse_10" data-name="Ellipse 10" cx="0.79" cy="0.79" r="0.79" transform="translate(244.35 62.152)" fill="#f2f2f2"/>
      <circle id="Ellipse_11" data-name="Ellipse 11" cx="3.003" cy="3.003" r="3.003" transform="translate(242.138 144.022)" fill="#f2f2f2"/>
      <path id="Path_83" data-name="Path 83" d="M304.7,250.313v1.581H219.666v-1.265l.117-.316,2.1-5.69h81.08Z" transform="translate(-64.236 -71.52)" fill="#3f3d56"/>
      <path id="Path_84" data-name="Path 84" d="M548.736,329.515c-.155.662-.74,1.361-2.061,2.021-4.742,2.371-14.383-.632-14.383-.632s-7.428-1.264-7.428-4.583a5.924,5.924,0,0,1,.651-.387c1.994-1.055,8.6-3.657,20.323.11a4.887,4.887,0,0,1,2.228,1.46,2.331,2.331,0,0,1,.67,2.011Z" transform="translate(-275.552 -152.269)" fill="#3f3d56"/>
      <path id="Path_85" data-name="Path 85" d="M549.005,329.515c-5.8,2.224-10.977,2.39-16.286-1.3a11.659,11.659,0,0,0-6.935-2.284c1.993-1.055,8.6-3.657,20.323.11a4.887,4.887,0,0,1,2.228,1.46,2.331,2.331,0,0,1,.67,2.011Z" transform="translate(-275.821 -152.269)" opacity="0.1"/>
      <ellipse id="Ellipse_12" data-name="Ellipse 12" cx="2.055" cy="0.632" rx="2.055" ry="0.632" transform="translate(263.853 174.684)" fill="#f2f2f2"/>
      <path id="Path_86" data-name="Path 86" d="M304.7,252.665v1.581H219.666v-1.265l.117-.316Z" transform="translate(-64.236 -73.871)" opacity="0.1"/>
      <path id="Path_87" data-name="Path 87" d="M232.766,81.28a4.272,4.272,0,0,0-2.478.554,6.464,6.464,0,0,0-1.676,2.212A26.464,26.464,0,0,1,221.4,92.19c-2.142,1.569-4.865,3.526-4.5,6.419a8.676,8.676,0,0,0,1.044,2.71c1.976,3.989,7.369,7.072,6.838,11.624,1.963-3.287-.663-4.912,1.3-8.2.935-1.565,2.559-3.332,3.971-2.349.473.329.783.919,1.275,1.208,1.174.689,2.424-.628,3.463-1.561,3.585-3.218,8.682-2.375,13.143-1.372,2.106.473,4.419,1.094,5.664,3.107,1.637,2.646-1.555,5.5-2.361,8.5a1.63,1.63,0,0,0,1.75,2.029c1.338-.132,2.924-.24,3-.828,1.684.06,3.747-.131,4.469-1.884a7.372,7.372,0,0,0,.346-2.144c.265-2.945,1.515-5.632,2.343-8.436s1.188-6.089-.209-8.574a9.921,9.921,0,0,0-1.831-2.225C253.179,82.535,242.752,81.269,232.766,81.28Z" transform="translate(-185.487 -81.266)" fill="#2f2e41"/>
      <path id="Path_88" data-name="Path 88" d="M227.837,133.027s1.725,14.373-4.6,15.523,5.749,20.7,5.749,20.7l28.747,3.45-6.9-23s-4.6-1.725-1.725-13.223S227.837,133.027,227.837,133.027Z" transform="translate(-186.813 -95.601)" fill="#ffb8b8"/>
      <path id="Path_89" data-name="Path 89" d="M33.2,401.86l2.3,31.622H47.568L44.119,401.86Z" transform="translate(-9.707 -117.499)" fill="#ffb8b8"/>
      <path id="Path_90" data-name="Path 90" d="M158.327,316.88l1.725,26.447,13.224-5.749L168.1,315.731Z" transform="translate(-46.299 -92.313)" fill="#ffb8b8"/>
      <path id="Path_91" data-name="Path 91" d="M193.524,302.352s.575,33.346,4.025,44.27,2.875,11.5,2.3,13.223-1.15.575-1.15,3.45-1.15,48.295,0,52.319-3.45,10.924,0,11.5,19.548,0,20.123-3.45-4.6-4.6-2.3-6.9,5.749-49.444,5.749-49.444l8.049-32.771L245.268,317.3H276.89l9.774,37.946s-4.025,10.924-1.15,10.924,20.123,3.45,20.123-9.2-5.75-50.019-6.9-51.169.575-5.174-1.15-6.9-21.848-13.8-29.322-16.1-17.959-5.037-17.959-5.037Z" transform="translate(-178.66 -138.728)" fill="#2f2e41"/>
      <path id="Path_92" data-name="Path 92" d="M345.641,421.2s-8.624-2.875-12.649,5.749-2.3,10.924-2.3,10.924,13.224,4.6,15.523,2.3c1-1,4.178-1.348,7.448-1.422,4.981-.112,6.306-7.159,1.6-8.8q-.21-.073-.426-.128C350.24,428.677,345.641,421.2,345.641,421.2Z" transform="translate(-218.664 -180.537)" fill="#2f2e41"/>
      <circle id="Ellipse_13" data-name="Ellipse 13" cx="17.248" cy="17.248" r="17.248" transform="translate(36.711 12.416)" fill="#ffb8b8"/>
      <path id="Path_93" data-name="Path 93" d="M211.148,164.193s28.172,5.749,35.071-3.45,9.774,25.872,9.774,25.872l3.45,36.8-5.174,20.123s-27.022,21.848-35.646,23.572-21.848,2.875-21.848,2.875,4.025-63.818,4.025-64.968S211.148,164.193,211.148,164.193Z" transform="translate(-179.611 -104.057)" fill="#94a4b1"/>
      <path id="Path_94" data-name="Path 94" d="M214.634,150.338s-6.268-3.591-7.993-.141-17.823,12.073-19.547,12.073,3.45,47.72,1.15,53.469-13.224,47.72-6.9,51.169,1.725-3.45,8.049,5.174,37.371,8.624,39.1,5.174-13.8-29.322-10.924-53.469,7.474-57.494,3.45-62.093S214.634,150.338,214.634,150.338Z" transform="translate(-174.53 -100.985)" fill="#2f2e41"/>
      <path id="Path_95" data-name="Path 95" d="M258.527,155.365l.8-2.756s23.921,7.93,25.071,13.1.575,41.4-3.45,44.27-9.774,7.474-5.749,14.373,8.624,14.373,12.074,14.948,9.774,4.6,8.049,8.624-22.423-3.45-22.423-3.45-13.8-10.349-13.223-26.447S258.527,155.365,258.527,155.365Z" transform="translate(-197.669 -102.128)" fill="#2f2e41"/>
      <path id="Path_96" data-name="Path 96" d="M276.233,252.384l-13.8,25.872s-20.123,20.7-8.624,23,17.823-18.973,17.823-18.973l14.948-21.273Z" transform="translate(-195.252 -131.305)" fill="#ffb8b8"/>
      <path id="Path_97" data-name="Path 97" d="M235.175,87.66a3.915,3.915,0,0,0-2.017.391,4.7,4.7,0,0,0-1.364,1.564,19.865,19.865,0,0,1-5.869,5.756c-1.744,1.109-3.961,2.492-3.662,4.537a5.673,5.673,0,0,0,.85,1.915,15.065,15.065,0,0,1,1.831,9.39l4.795-6.969c.761-1.106,2.083-2.355,3.232-1.66.385.233.637.65,1.038.854.956.487,1.973-.444,2.819-1.1,2.918-2.274,7.067-1.678,10.7-.97,1.714.335,3.6.773,4.61,2.2,1.684,2.364-.074,5.78.908,8.511a2.509,2.509,0,0,0,1.038-1.657c1.371.042,3.05-.092,3.638-1.332a4.588,4.588,0,0,0,.282-1.516c.216-2.082,1.233-3.981,1.907-5.962s.967-4.3-.17-6.06a7.332,7.332,0,0,0-1.49-1.573C251.792,88.547,243.3,87.652,235.175,87.66Z" transform="translate(-187.056 -83.133)" fill="#2f2e41"/>
      <path id="Path_98" data-name="Path 98" d="M285.066,167.879l5.357,1.422s12.466,31.924,9.592,53.772-4.6,17.248-4.6,17.248-4.6-10.349-14.948-8.049Z" transform="translate(-204.084 -106.594)" fill="#2f2e41"/>
      <path id="Path_99" data-name="Path 99" d="M202.935,521.235c-1.386,1.884-1.108,4.577-2.337,6.568-1.065,1.726-3.071,2.631-4.4,4.16a11.154,11.154,0,0,0-1.132,1.628c-1.235,2.069-2.239,4.721-1.023,6.8.979,1.673,3.036,2.327,4.922,2.773a18.062,18.062,0,0,0,7.274.584,7.244,7.244,0,0,0,5.629-4.2,16.237,16.237,0,0,1,.6-1.7c1.307-2.574,5.408-2.6,6.746-5.159.936-1.79.076-3.954-.785-5.782l-2.628-5.582c-.872-1.853-4.407-.787-6.25-1.231C207.148,519.515,204.664,518.877,202.935,521.235Z" transform="translate(-178.65 -209.432)" fill="#2f2e41"/>
      <path id="Path_100" data-name="Path 100" d="M179.711,266.971l24.147,37.371s14.948,18.973,19.548,10.349-16.1-23-16.1-23l-15.523-28.747Z" transform="translate(-174.621 -134.394)" fill="#ffb8b8"/>
      <path id="Path_101" data-name="Path 101" d="M189.681,169.029l-4.6-1.15s-9.2,2.875-11.5,14.948-.575,60.368,2.3,60.943,14.2-8.409,16.01-6.5-3.937-7.869-2.212-13.044S189.681,169.029,189.681,169.029Z" transform="translate(-172.517 -106.594)" fill="#2f2e41"/>
      <g id="Group_13" data-name="Group 13" transform="translate(199.751 88.099)">
        <rect id="Rectangle_55" data-name="Rectangle 55" width="14.86" height="3.577" transform="translate(18.712)" fill="#4f48ec"/>
        <rect id="Rectangle_56" data-name="Rectangle 56" width="5.228" height="3.577" transform="translate(79.803)" fill="#4f48ec"/>
        <rect id="Rectangle_57" data-name="Rectangle 57" width="5.228" height="3.577" transform="translate(90.26)" fill="#4f48ec"/>
        <rect id="Rectangle_58" data-name="Rectangle 58" width="35.499" height="3.577" transform="translate(38.801)" fill="#4f48ec"/>
        <rect id="Rectangle_59" data-name="Rectangle 59" width="14.86" height="3.577" transform="translate(0 23.115)" fill="#4f48ec"/>
        <rect id="Rectangle_60" data-name="Rectangle 60" width="5.228" height="3.577" transform="translate(61.09 23.115)" fill="#4f48ec"/>
        <rect id="Rectangle_61" data-name="Rectangle 61" width="5.228" height="3.577" transform="translate(71.547 23.115)" fill="#4f48ec"/>
        <rect id="Rectangle_62" data-name="Rectangle 62" width="35.499" height="3.577" transform="translate(20.088 23.115)" fill="#4f48ec"/>
        <rect id="Rectangle_63" data-name="Rectangle 63" width="14.86" height="3.577" transform="translate(61.365 7.98)" fill="#4f48ec"/>
        <rect id="Rectangle_64" data-name="Rectangle 64" width="14.86" height="3.577" transform="translate(81.454 7.98)" fill="#4f48ec"/>
        <rect id="Rectangle_66" data-name="Rectangle 66" width="5.228" height="3.577" transform="translate(0 7.98)" fill="#4f48ec"/>
        <rect id="Rectangle_67" data-name="Rectangle 67" width="5.228" height="3.577" transform="translate(10.457 7.98)" fill="#4f48ec"/>
        <rect id="Rectangle_68" data-name="Rectangle 68" width="35.499" height="3.577" transform="translate(20.914 7.98)" fill="#4f48ec"/>
        <rect id="Rectangle_69" data-name="Rectangle 69" width="14.86" height="3.577" transform="translate(30.545 15.685)" fill="#4f48ec"/>
        <rect id="Rectangle_70" data-name="Rectangle 70" width="14.86" height="3.577" transform="translate(10.457 15.685)" fill="#4f48ec"/>
        <rect id="Rectangle_71" data-name="Rectangle 71" width="5.228" height="3.577" transform="translate(0 15.685)" fill="#4f48ec"/>
        <rect id="Rectangle_73" data-name="Rectangle 73" width="5.228" height="3.577" transform="translate(91.085 15.685)" fill="#4f48ec"/>
        <rect id="Rectangle_74" data-name="Rectangle 74" width="35.499" height="3.577" transform="translate(50.358 15.685)" fill="#4f48ec"/>
      </g>
    </g>
  </g>
</svg>
