<svg xmlns="http://www.w3.org/2000/svg" width="437" height="359" viewBox="0 0 437 359">
  <g id="Group_5" data-name="Group 5" transform="translate(-521 -101)">
    <g id="landing-img" transform="translate(521.09 101)">
      <path id="Path_1" data-name="Path 1" d="M908.062,728c.134,13.986-87.963,15.268-89.641,0C818.287,714.02,906.384,712.738,908.062,728Z" transform="translate(-471.153 -379.98)" fill="#e6e6e6"/>
      <path id="Path_2" data-name="Path 2" d="M619.411,507.569l-6.547,3.572,4.167,13.7,6.547.6,3.572-7.741Z" transform="translate(-251.428 -208.099)" fill="#ffb9b9"/>
      <path id="Path_3" data-name="Path 3" d="M658.28,553.994v6.55l10.118-.6-.141-5.394Z" transform="translate(-270.06 -227.133)" fill="#ffb9b9"/>
      <path id="Path_4" data-name="Path 4" d="M619.929,374.348l3.571,44.66,11.309,65.5,17.856-2.382-5.952-51.805,2.381-47.637Z" transform="translate(-254.327 -153.479)" fill="#2f2e41"/>
      <path id="Path_5" data-name="Path 5" d="M897.124,463.6l-42.854.6-4.762,32.75,29.165,13.7,7.142,26.2-36.307,38.705,14.285,17.864s20.237-27.391,35.117-42.873,7.738-62.524,7.738-62.524Z" transform="translate(-483.906 -276.075)" fill="#2f2e41"/>
      <ellipse id="Ellipse_2" data-name="Ellipse 2" cx="13.094" cy="13.1" rx="13.094" ry="13.1" transform="translate(374.53 76.767)" fill="#ffb9b9"/>
      <path id="Path_6" data-name="Path 6" d="M878.777,309.083v13.1l8.928,14.291s13.69-10.123,10.714-12.5-3.571-20.841-3.571-20.841Z" transform="translate(-495.914 -210.284)" fill="#ffb9b9"/>
      <path id="Path_7" data-name="Path 7" d="M642.986,183.827l-8.928,10.718,3.572,74.433,27.974-.6,4.762-64.905L664.413,186.8l-4.083-5.557L653.1,192.163Z" transform="translate(-260.123 -74.31)" fill="#fff"/>
      <path id="Path_8" data-name="Path 8" d="M840.477,378.368l-6.547,25.009,6.547,25.009-10.714,14.291-9.523-45.255s7.142-36.919,7.738-41.087,1.786-4.764,1.786-4.764l4.762.6Z" transform="translate(-471.899 -230.145)" fill="#2f2e41"/>
      <path id="Path_9" data-name="Path 9" d="M705.714,242.127l4.167,7.741,1.191,13.1-2.381,14.887,8.332,13.7,8.333-37.514L716.428,205.8h-3.572Z" transform="translate(-289.52 -84.378)" fill="#2f2e41"/>
      <path id="Path_10" data-name="Path 10" d="M840.961,652.327s-8.333,2.382-11.309,2.977,1.786,11.909,1.786,11.909,2.976,15.482,3.571,18.459,4.762,13.1,10.119,14.291,1.786-20.841,1.786-20.841,2.381-7.146,2.381-9.527-3.571-1.191-3.571-1.191C836.2,667.214,840.961,652.327,840.961,652.327Z" transform="translate(-475.359 -353.452)" fill="#2f2e41"/>
      <path id="Path_11" data-name="Path 11" d="M882.759,720.066c.6,3.573-.6,3.573,8.928,4.764s7.143-6.55,7.143-6.55a50.06,50.06,0,0,0-2.381-10.718c-1.786-4.764-11.309,1.191-11.309,1.191S882.164,716.493,882.759,720.066Z" transform="translate(-497.515 -375.34)" fill="#2f2e41"/>
      <path id="Path_12" data-name="Path 12" d="M887.41,287.367l.31,5.3a59.966,59.966,0,0,0,4.436-17.621c.6-8.932-9.524-10.718-15.476-11.314s-16.07,3.573-16.07,8.336,10.714,3.573,14.88,2.382,5.952,8.932,5.952,8.932l2.381.6Z" transform="translate(-488.461 -194.107)" fill="#2f2e41"/>
      <path id="Path_13" data-name="Path 13" d="M643.24,189.837l3.513-4.217,10.118,8.336L646.753,201.1Z" transform="translate(-263.89 -76.103)" fill="#fff"/>
      <path id="Path_14" data-name="Path 14" d="M677.663,186.942l-4.167-5.359L666.354,192.3l8.928,6.55Z" transform="translate(-273.373 -74.447)" fill="#fff"/>
      <path id="Path_15" data-name="Path 15" d="M845.731,377.808l2.381,22.628-4.762,13.7-2.976,13.1s0,12.5,11.9,13.1S874.3,402.817,874.3,402.817s1.786,8.336,2.976,13.1S898.7,439.736,898.7,439.736s4.762-.6,8.928-10.123-8.333-18.459-8.333-18.459l-3.571-12.5,1.19-15.482,8.333-40.492-24.7-12.8,2.678,34.239-8.928,26.8-13.392-59.249-4.464,3.275L837.4,342.676Z" transform="translate(-478.938 -221.249)" fill="#2f2e41"/>
      <path id="Path_16" data-name="Path 16" d="M375.5,409.645c-1.177-.009-2.367-.017-3.536-.054l.036-1.179c1.157.036,2.34.052,3.5.053s2.353-.019,3.531-.057l.038,1.179C377.881,409.626,376.68,409.645,375.5,409.645Zm-10.627-.5c-2.348-.222-4.719-.524-7.048-.9l.186-1.165c2.3.368,4.65.666,6.973.886Zm21.285-.013-.112-1.174c2.322-.222,4.668-.524,6.972-.895l.188,1.165c-2.328.375-4.7.679-7.047.9Zm-35.31-2.229c-2.3-.521-4.612-1.125-6.875-1.794l.334-1.132c2.239.662,4.527,1.259,6.8,1.775Zm49.332-.029-.262-1.15c2.28-.52,4.568-1.12,6.8-1.783l.336,1.132c-2.256.67-4.569,1.276-6.873,1.8Zm-62.953-4c-2.218-.815-4.438-1.713-6.6-2.669l.477-1.079c2.136.945,4.332,1.833,6.526,2.64Zm76.569-.046-.408-1.107c2.181-.8,4.37-1.692,6.5-2.639l.479,1.079c-2.157.958-4.369,1.855-6.575,2.668Zm-89.575-5.711c-2.088-1.09-4.173-2.266-6.2-3.493l.612-1.009c2,1.215,4.065,2.377,6.13,3.456Zm102.541-.043-.546-1.046c2.061-1.078,4.118-2.24,6.115-3.454l.613,1.008c-2.019,1.228-4.1,2.4-6.182,3.492Zm-114.7-7.332c-1.934-1.35-3.85-2.782-5.7-4.254l.735-.923c1.827,1.458,3.723,2.874,5.636,4.21Zm126.825-.042-.676-.967c1.913-1.337,3.806-2.754,5.629-4.21l.736.922c-1.842,1.472-3.756,2.9-5.688,4.254ZM300.96,380.88c-1.748-1.587-3.466-3.251-5.107-4.943l.847-.822c1.623,1.674,3.324,3.32,5.053,4.891Zm149.031-.041-.794-.874c1.725-1.568,3.424-3.214,5.05-4.893l.847.82c-1.643,1.7-3.36,3.361-5.1,4.946ZM291.072,370.68c-1.531-1.8-3.023-3.663-4.436-5.55l.944-.708c1.4,1.868,2.874,3.716,4.389,5.492Zm168.8-.049-.9-.765c1.514-1.778,2.991-3.628,4.389-5.5l.945.706c-1.413,1.89-2.905,3.76-4.436,5.557Zm-177.31-11.323c-1.29-1.977-2.532-4.018-3.691-6.068l1.027-.581c1.146,2.028,2.375,4.048,3.652,6Zm185.82-.064-.988-.644c1.277-1.96,2.506-3.983,3.653-6.015l1.027.58c-1.159,2.054-2.4,4.1-3.692,6.079ZM275.58,346.95c-1.026-2.124-2-4.306-2.882-6.488l1.093-.444c.877,2.157,1.836,4.317,2.851,6.418Zm199.79-.092-1.062-.513c1.015-2.1,1.974-4.27,2.852-6.437l1.093.442c-.887,2.191-1.857,4.381-2.883,6.507ZM270.236,333.794c-.746-2.241-1.428-4.534-2.026-6.814l1.141-.3c.592,2.256,1.266,4.524,2,6.741Zm210.475-.125-1.12-.371c.734-2.214,1.406-4.483,2-6.744l1.141.3c-.6,2.285-1.277,4.578-2.019,6.816ZM266.628,320.05c-.451-2.315-.832-4.676-1.133-7.017l1.17-.151c.3,2.316.676,4.651,1.121,6.942Zm217.676-.13-1.158-.224c.442-2.29.817-4.626,1.113-6.944l1.17.15c-.3,2.342-.678,4.7-1.126,7.018ZM264.812,305.959c-.151-2.352-.229-4.743-.232-7.105h1.179c0,2.338.08,4.7.229,7.031Zm221.29-.132-1.177-.075c.147-2.325.221-4.69.221-7.029v-.259h1.18v.255c0,2.367-.075,4.758-.224,7.108Zm-220.129-14-1.177-.073c.146-2.357.37-4.737.665-7.077l1.17.147C266.339,287.136,266.117,289.492,265.973,291.823Zm218.936-.387c-.153-2.332-.383-4.687-.683-7l1.169-.152c.3,2.336.536,4.716.691,7.074ZM267.736,277.877l-1.158-.223c.445-2.316.972-4.649,1.566-6.933l1.141.3C268.7,273.278,268.176,275.586,267.736,277.877Zm215.359-.381c-.449-2.293-.979-4.6-1.573-6.854l1.14-.3c.6,2.28,1.136,4.61,1.591,6.928ZM271.274,264.272l-1.12-.37c.74-2.242,1.564-4.491,2.45-6.685l1.094.442C272.821,259.829,272.005,262.054,271.274,264.272Zm208.237-.368c-.741-2.215-1.562-4.433-2.443-6.594l1.092-.445c.89,2.184,1.721,4.427,2.47,6.665ZM276.542,251.218l-1.063-.512c1.023-2.128,2.13-4.251,3.288-6.31l1.028.579C278.648,247.012,277.554,249.112,276.542,251.218Zm197.667-.322c-1.016-2.1-2.114-4.188-3.266-6.22l1.026-.582c1.164,2.054,2.274,4.169,3.3,6.287ZM283.44,238.954l-.989-.644c1.286-1.978,2.654-3.941,4.066-5.835l.946.705C286.066,235.055,284.713,237,283.44,238.954Zm183.844-.278c-1.276-1.95-2.634-3.886-4.035-5.755l.943-.708c1.417,1.889,2.789,3.846,4.079,5.817Zm-175.438-11-.9-.764c1.528-1.8,3.134-3.57,4.773-5.267l.848.82C294.946,224.146,293.357,225.9,291.845,227.679Zm167.008-.243c-1.516-1.774-3.111-3.522-4.737-5.2l.845-.822c1.644,1.692,3.255,3.459,4.788,5.252Zm-157.241-9.868-.794-.872c1.745-1.591,3.563-3.144,5.4-4.616l.737.921c-1.819,1.456-3.618,2.993-5.345,4.566Zm147.444-.214c-1.73-1.566-3.533-3.1-5.361-4.553l.735-.924c1.847,1.471,3.67,3.019,5.417,4.6Zm-136.475-8.569-.677-.966c1.93-1.353,3.93-2.661,5.943-3.889l.614,1.008C316.47,206.152,314.491,207.446,312.581,208.784Zm125.474-.188c-1.92-1.337-3.9-2.627-5.9-3.834l.61-1.009c2.016,1.22,4.022,2.524,5.963,3.875Zm-113.482-7.121-.548-1.045c2.085-1.094,4.234-2.135,6.388-3.094l.48,1.078C328.762,199.362,326.636,200.393,324.573,201.475Zm101.449-.162c-2.071-1.079-4.206-2.1-6.344-3.048l.476-1.08c2.161.954,4.319,1.99,6.413,3.081Zm-88.628-5.547-.409-1.107c2.212-.818,4.479-1.576,6.74-2.25l.337,1.131c-2.237.667-4.48,1.416-6.668,2.226Zm75.754-.134c-2.192-.8-4.438-1.543-6.676-2.2l.333-1.132c2.262.666,4.532,1.415,6.748,2.226Zm-62.289-3.882-.263-1.15c2.295-.526,4.641-.984,6.973-1.363l.189,1.165C355.45,190.777,353.129,191.23,350.859,191.751Zm48.809-.086c-2.274-.513-4.6-.958-6.9-1.324l.185-1.166c2.331.37,4.679.82,6.978,1.338ZM364.729,189.5l-.114-1.174c2.342-.227,4.727-.383,7.089-.461l.039,1.179c-2.338.078-4.7.231-7.014.456Zm21.062-.037c-2.32-.217-4.681-.362-7.016-.432l.035-1.179c2.359.07,4.745.217,7.09.436Z" transform="translate(-243.939 -163.021)" fill="#fd5052" opacity="0.2"/>
      <ellipse id="Ellipse_3" data-name="Ellipse 3" cx="27.524" cy="27.536" rx="27.524" ry="27.536" transform="translate(99.996)" fill="#40484e"/>
      <ellipse id="Ellipse_4" data-name="Ellipse 4" cx="28.024" cy="28.037" rx="28.024" ry="28.037" transform="translate(207.088 75.098)" fill="#40484e"/>
      <ellipse id="Ellipse_5" data-name="Ellipse 5" cx="28.024" cy="27.536" rx="28.024" ry="27.536" transform="translate(173.059 191.249)" fill="#40484e"/>
      <ellipse id="Ellipse_6" data-name="Ellipse 6" cx="27.524" cy="28.037" rx="27.524" ry="28.037" transform="translate(40.945 195.254)" fill="#40484e"/>
      <ellipse id="Ellipse_7" data-name="Ellipse 7" cx="28.024" cy="28.037" rx="28.024" ry="28.037" transform="translate(-0.09 75.098)" fill="#40484e"/>
    </g>
    <g id="css3" transform="translate(736.3 184.3)">
      <path id="Path_47" data-name="Path 47" d="M0,0H40.321V40.321H0Z" fill="none"/>
      <path id="Path_48" data-name="Path 48" d="M124.378,152.453l-10.19,2.749L104,152.453l-2.351-25.524h25.083Z" transform="translate(-94.027 -117.463)" fill="#596166"/>
      <path id="Path_49" data-name="Path 49" d="M269.289,154.511v24.013l.023.006,8.262-2.225,1.907-21.794Z" transform="translate(-249.137 -142.978)" fill="#6d7378"/>
      <path id="Path_50" data-name="Path 50" d="M171.469,37.634V36.115h2.216V34.453h-3.879v4.7h3.879V37.634Zm6.2-1.519h1.55V34.453h-3.879v1.662c.519.519.79.767,1.54,1.518l-1.54,0v1.517h3.879V37.634Zm5.5,0h1.55V34.453h-3.879v1.662c.519.519.79.767,1.54,1.518l-1.54,0v1.517h3.879V37.634Z" transform="translate(-157.103 -31.871)" fill="#fff"/>
      <path id="Path_51" data-name="Path 51" d="M178.985,199.426l-7.307,3.043.242,3.013,7.065-3.021,7.515-3.213.312-3.082-7.827,3.26Z" transform="translate(-158.835 -181.485)" fill="#fff"/>
      <path id="Path_52" data-name="Path 52" d="M171.677,242.7l.242,3.013,7.065-3.021v-3.036Z" transform="translate(-158.828 -221.718)" fill="#fff"/>
      <path id="Path_53" data-name="Path 53" d="M276.995,196.167l-7.827,3.26v3.036l7.515-3.213Z" transform="translate(-249.023 -181.484)" fill="#fff"/>
      <path id="Path_54" data-name="Path 54" d="M171.827,280.258l.242,3.013,10.84.034-.243,4.017-3.567,1-3.429-.866-.208-2.494h-3.186l.416,4.814,6.442,1.9,6.407-1.87.831-9.558Z" transform="translate(-158.972 -259.286)" fill="#fff"/>
      <path id="Path_55" data-name="Path 55" d="M178.985,280.258h-7.307l.242,3.013,7.065.023v-3.036Zm0,8.06-.035.01-3.429-.866-.208-2.494h-3.186l.416,4.814,6.441,1.9Z" transform="translate(-158.829 -259.286)" fill="#fff" opacity="0.05"/>
      <path id="Path_56" data-name="Path 56" d="M162.9,196.167H178.69l-.312,3.082h-15.1Z" transform="translate(-150.712 -181.483)" fill="#fff"/>
      <path id="Path_57" data-name="Path 57" d="M170.863,196.167H162.9l.381,3.082h7.584Z" transform="translate(-150.706 -181.483)" opacity="0.05"/>
    </g>
    <g id="html-5" transform="translate(634.783 110.5)">
      <path id="Path_58" data-name="Path 58" d="M26.307,70.766,23.951,97.161,13.36,100.1,2.8,97.165.445,70.766Z" transform="translate(0 -63.592)" fill="#596166"/>
      <path id="Path_59" data-name="Path 59" d="M128,116.985l8.558-2.373,2.013-22.555H128Z" transform="translate(-114.624 -82.725)" fill="#6d7378"/>
      <path id="Path_60" data-name="Path 60" d="M51.455,127.233h4.58V124H47.917l.077.869.8,8.922h7.245v-3.238H51.751Zm.73,8.172h-3.25l.454,5.084,6.632,1.841.015,0v-3.369l-.014,0-3.606-.974-.231-2.582Z" transform="translate(-42.659 -111.425)" fill="#ebebeb"/>
      <path id="Path_61" data-name="Path 61" d="M24.18,0h1.645V1.626H27.33V0h1.645V4.923H27.331V3.274H25.825V4.923H24.18V0Zm6.96,1.632H29.691V0h4.543V1.632H32.785v3.29H31.14V1.632h0ZM34.955,0h1.716l1.055,1.73L38.781,0H40.5V4.923H38.858V2.483l-1.132,1.75H37.7l-1.133-1.75v2.44h-1.61Zm6.36,0h1.646V3.3h2.314V4.923h-3.96V0Z" transform="translate(-21.329)" fill="#fff"/>
      <path id="Path_62" data-name="Path 62" d="M127.889,133.786h3.987l-.376,4.2-3.611.975v3.368l6.637-1.839.049-.547.761-8.524.079-.869h-7.526Zm0-6.561v.008h7.821l.065-.728.148-1.641L136,124h-8.11v3.23Z" transform="translate(-114.524 -111.425)" fill="#fff"/>
    </g>
    <g id="javascript-1" transform="translate(535.503 184.3)">
      <path id="Path_63" data-name="Path 63" d="M27.708,489.9H0l2.6,28.168,11.255,3.192,11.255-3.192Z" transform="translate(0 -482.257)" fill="#596166"/>
      <path id="Path_64" data-name="Path 64" d="M887.9,637v26.678l9.119-2.583L899.237,637Z" transform="translate(-874.048 -627.062)" fill="#6d7378"/>
      <path id="Path_65" data-name="Path 65" d="M406.6,858.5H392.577l-.977,10.546.02-.066h11.911l-.388,4.462-3.8,1.094-3.857-1.111-.231-2.7h-3.5l.5,5.4,7.089,2.013,7.092-2.013.977-10.592H394.77l.162-3.529H403.7l.131,2.022h3.532Z" transform="translate(-385.491 -845.107)" fill="#fff"/>
      <path id="Path_66" data-name="Path 66" d="M399.346,858.5h-6.769l-.977,10.546.02-.066h7.726v-3.44h-4.083l.162-3.529h3.921Zm-4.083,12.225h-3.509l.5,5.393,7.089,2.009V874.54l-3.857-1.114Z" transform="translate(-385.491 -845.107)" fill="#ebebeb"/>
      <path id="Path_67" data-name="Path 67" d="M559.566,3.488H557.1V5.259h4.231V0h-1.765Zm7.857-3.46h-4.3V1.869c.574.574.874.85,1.719,1.682h-1.719V5.229h4.3V3.554L565.7,1.872h1.719Z" transform="translate(-548.409)" fill="#fff"/>
    </g>
    <path id="github-1" d="M17.5,0A17.63,17.63,0,0,0,0,17.767,17.721,17.721,0,0,0,13.257,35a2.432,2.432,0,0,1-.131-.844V31.135H10.938a2.979,2.979,0,0,1-2.757-1.511c-.569-1.066-.657-2.71-2.1-3.732-.438-.355-.088-.711.393-.667a4.6,4.6,0,0,1,2.362,1.821A2.225,2.225,0,0,0,11.155,28.2a17.38,17.38,0,0,0,2.45-.178,5.489,5.489,0,0,1,2.319-2.887c-5.862-.711-8.662-3.643-8.662-7.641a7.39,7.39,0,0,1,1.969-4.8c-.393-1.378-.919-4.22.176-5.33A6.18,6.18,0,0,1,14,9.544a13.289,13.289,0,0,1,4.243-.711,13.081,13.081,0,0,1,4.243.711A6.178,6.178,0,0,1,27.08,7.368c1.05,1.066.569,3.953.131,5.33a7.252,7.252,0,0,1,1.926,4.8c0,4-2.757,6.93-8.574,7.551a6.2,6.2,0,0,1,2.757,5.019v4.046c0,.133-.043.266-.043.4A17.681,17.681,0,0,0,35,17.767,17.63,17.63,0,0,0,17.5,0Z" transform="translate(572 307)" fill="#fff"/>
    <g id="adobe-experience-design-1" transform="translate(706 206.35)">
      <path id="Path_44" data-name="Path 44" d="M25.5,123.15s23.156-8.774,28.6,0,0,27.823,0,27.823-22.453,8.3-28.6,0S25.5,123.15,25.5,123.15Z" transform="translate(-24.2 -24.2)" fill="#596166"/>
      <path id="Path_46" data-name="Path 46" d="M132.06,244.74a1.785,1.785,0,0,0-.754-.13c-1.638,0-2.73,1.261-2.73,3.354,0,2.392,1.118,3.354,2.574,3.354a2.453,2.453,0,0,0,.9-.143V244.74Zm-5.825,3.328c0-3.029,1.95-5.4,5.148-5.4a5.766,5.766,0,0,1,.676.026v-3.38a.13.13,0,0,1,.13-.13h2.093c.1,0,.13.039.13.1v11.883a9.267,9.267,0,0,0,.065,1.274c0,.091,0,.1-.078.143a7.744,7.744,0,0,1-3.328.754C128.251,253.346,126.235,251.6,126.235,248.068Zm-4.433-2.106,3.64,7.06c.065.1.026.208-.078.208H123.1a.255.255,0,0,1-.273-.169q-1.248-2.574-2.548-5.343h-.026c-.78,1.742-1.638,3.64-2.47,5.357a.25.25,0,0,1-.234.143h-2.158c-.13,0-.143-.1-.078-.182l3.562-6.852-3.445-6.813a.115.115,0,0,1,.091-.2h2.236c.13,0,.2.026.234.143.819,1.729,1.651,3.432,2.431,5.174h.026c.754-1.716,1.586-3.445,2.379-5.148.065-.1.1-.169.234-.169h2.093c.1,0,.143.078.078.2l-3.432,6.592Z" transform="translate(-109.399 -134.309)" fill="#fff"/>
    </g>
  </g>
</svg>
