<svg xmlns="http://www.w3.org/2000/svg" xmlns:xlink="http://www.w3.org/1999/xlink" width="721" height="303" viewBox="0 0 721 303">
  <defs>
    <clipPath id="clip-path">
      <rect id="Rectangle_16" data-name="Rectangle 16" width="721" height="303" transform="translate(280 248)" fill="none" stroke="#707070" stroke-width="1"/>
    </clipPath>
  </defs>
  <g id="Mask_Group_2" data-name="Mask Group 2" transform="translate(-280 -248)" clip-path="url(#clip-path)">
    <g id="resume-img" transform="translate(403.371 248)">
      <rect id="Rectangle_17" data-name="Rectangle 17" width="224.311" height="293.74" transform="translate(51.902)" fill="#e6e6e6"/>
      <rect id="Rectangle_18" data-name="Rectangle 18" width="197.607" height="53.407" transform="translate(65.254 15.221)" fill="#fff"/>
      <rect id="Rectangle_19" data-name="Rectangle 19" width="122.837" height="192.266" transform="translate(139.49 86.787)" fill="#fff"/>
      <rect id="Rectangle_20" data-name="Rectangle 20" width="49.895" height="3.75" transform="translate(149.188 35.177)" fill="#e6e6e6"/>
      <rect id="Rectangle_21" data-name="Rectangle 21" width="62.793" height="3.75" transform="translate(142.512 44.922)" fill="#e6e6e6"/>
      <rect id="Rectangle_22" data-name="Rectangle 22" width="49.895" height="3.75" transform="translate(173.755 131.155)" fill="#e6e6e6"/>
      <rect id="Rectangle_23" data-name="Rectangle 23" width="77.049" height="3.75" transform="translate(173.755 142.164)" fill="#94a4b1"/>
      <rect id="Rectangle_24" data-name="Rectangle 24" width="62.793" height="3.75" transform="translate(174.557 152.649)" fill="#e6e6e6"/>
      <rect id="Rectangle_25" data-name="Rectangle 25" width="36.657" height="3.75" transform="translate(173.755 164.154)" fill="#e6e6e6"/>
      <rect id="Rectangle_26" data-name="Rectangle 26" width="55.326" height="3.75" transform="translate(173.755 175.391)" fill="#94a4b1"/>
      <rect id="Rectangle_27" data-name="Rectangle 27" width="6.11" height="6.11" transform="translate(151.014 129.975)" fill="#e6e6e6"/>
      <rect id="Rectangle_28" data-name="Rectangle 28" width="6.11" height="6.11" transform="translate(151.014 140.985)" fill="#94a4b1"/>
      <rect id="Rectangle_29" data-name="Rectangle 29" width="6.11" height="6.11" transform="translate(151.014 151.47)" fill="#e6e6e6"/>
      <rect id="Rectangle_30" data-name="Rectangle 30" width="6.11" height="6.11" transform="translate(151.014 162.974)" fill="#e6e6e6"/>
      <rect id="Rectangle_31" data-name="Rectangle 31" width="6.11" height="6.11" transform="translate(151.014 174.212)" fill="#94a4b1"/>
      <rect id="Rectangle_32" data-name="Rectangle 32" width="49.895" height="3.75" transform="translate(173.755 186.699)" fill="#e6e6e6"/>
      <rect id="Rectangle_33" data-name="Rectangle 33" width="77.049" height="3.75" transform="translate(173.755 197.708)" fill="#94a4b1"/>
      <rect id="Rectangle_34" data-name="Rectangle 34" width="62.793" height="3.75" transform="translate(174.557 208.193)" fill="#e6e6e6"/>
      <rect id="Rectangle_35" data-name="Rectangle 35" width="36.657" height="3.75" transform="translate(173.755 219.698)" fill="#e6e6e6"/>
      <rect id="Rectangle_36" data-name="Rectangle 36" width="55.326" height="3.75" transform="translate(173.755 230.935)" fill="#e6e6e6"/>
      <rect id="Rectangle_37" data-name="Rectangle 37" width="6.11" height="6.11" transform="translate(151.014 185.519)" fill="#e6e6e6"/>
      <rect id="Rectangle_38" data-name="Rectangle 38" width="6.11" height="6.11" transform="translate(151.014 196.528)" fill="#94a4b1"/>
      <rect id="Rectangle_39" data-name="Rectangle 39" width="6.11" height="6.11" transform="translate(151.014 207.013)" fill="#e6e6e6"/>
      <rect id="Rectangle_40" data-name="Rectangle 40" width="6.11" height="6.11" transform="translate(151.014 218.518)" fill="#e6e6e6"/>
      <rect id="Rectangle_41" data-name="Rectangle 41" width="6.11" height="6.11" transform="translate(151.014 229.755)" fill="#e6e6e6"/>
      <path id="Path_102" data-name="Path 102" d="M181.086,114.88a15.877,15.877,0,1,0,15.877,15.877,15.877,15.877,0,0,0-15.877-15.877Zm0,4.763a4.763,4.763,0,1,1-4.763,4.763,4.763,4.763,0,0,1,4.763-4.763Zm0,22.931a11.567,11.567,0,0,1-9.526-5.084c.076-3.176,6.351-4.924,9.526-4.924s9.45,1.748,9.526,4.924a11.586,11.586,0,0,1-9.526,5.084Z" transform="translate(-83.315 -88.833)" fill="#40484e"/>
      <rect id="Rectangle_42" data-name="Rectangle 42" width="474.257" height="1.197" transform="translate(0 293.101)" fill="#40484e"/>
      <path id="Path_103" data-name="Path 103" d="M466.208,179.009s5.421,11.444,9.035,12.649L465,207.318l-8.433-10.24s.6-7.228-1.2-10.24S466.208,179.009,466.208,179.009Z" transform="translate(-83.315 -88.833)" fill="#fbbebe"/>
      <circle id="Ellipse_14" data-name="Ellipse 14" cx="11.444" cy="11.444" r="11.444" transform="translate(363.016 77.527)" fill="#fbbebe"/>
      <path id="Path_104" data-name="Path 104" d="M358.8,170.887l3.012,8.432,3.614-4.217-3.033-9.6Z" fill="#fbbebe"/>
      <path id="Path_105" data-name="Path 105" d="M450.548,255.5s-3.614,15.058-1.807,22.286,7.228,56.619,7.228,56.619l3.614,39.151,14.456,1.2-1.807-45.777,1.807-39.753,10.24,38.549v46.981l17.467.6-1.807-60.835s1.2-46.981-6.626-53-9.035-7.228-9.035-7.228Z" transform="translate(-83.315 -88.833)" fill="#2f2e41"/>
      <path id="Path_106" data-name="Path 106" d="M462.594,372.958l-1.2,4.216-1.807,5.421s-5.421,10.842,3.614,9.035,7.83-6.023,7.83-6.023,3.012-1.807,2.409-2.409-.6-9.637-.6-9.637Z" transform="translate(-83.315 -88.833)" fill="#2f2e41"/>
      <path id="Path_107" data-name="Path 107" d="M497.529,372.958l1.2,4.216,1.807,5.421s5.421,10.842-3.614,9.035-7.83-6.023-7.83-6.023-3.012-1.807-2.409-2.409.6-9.637.6-9.637Z" transform="translate(-83.315 -88.833)" fill="#2f2e41"/>
      <path id="Path_108" data-name="Path 108" d="M465,200.09l7.367-10.842,13.715,7.228,1.807,62.642s-7.83-4.819-19.877,1.2-19.877,1.807-19.877,1.807l7.228-27.1-3.012-36.14,4.308-3.91Z" transform="translate(-83.315 -88.833)" fill="#e6e6e6"/>
      <path id="Path_109" data-name="Path 109" d="M456.664,193.836l-2.5,2.038S438.5,203.7,437.9,209.125l10.842,29.514s3.012,6.626.6,9.035-4.819,8.433-4.216,11.444-3.614,15.66,1.2,15.66,16.263-28.912,15.66-40.356S460.973,193,456.664,193.836Z" transform="translate(-83.315 -88.833)" fill="#2f2e41"/>
      <path id="Path_110" data-name="Path 110" d="M443.32,205.511l-3.713.4s-3.515,2.615-3.515,8.638-.6,24.093-.6,24.093-1.2,9.035,2.409,15.66a70.509,70.509,0,0,1,4.216,8.433l6.023-7.228V240.446l2.409-9.637Z" transform="translate(-83.315 -88.833)" fill="#2f2e41"/>
      <path id="Path_111" data-name="Path 111" d="M470.559,186.77l5.888,2.478s20.479,5.421,23.491,14.456l-8.433,21.081s6.023,38.549,4.216,38.549h-1.807s4.819,3.614,1.807,4.819-10.24,10.842-12.047,6.626-12.649-54.21-11.444-65.051S469.49,187.906,470.559,186.77Z" transform="translate(-83.315 -88.833)" fill="#2f2e41"/>
      <path id="Path_112" data-name="Path 112" d="M462.293,163.047v-1.2h-3.012s-4.819-3.012-9.035.6-6.023,5.421-6.023,5.421l-1.807,2.409,1.807.6-1.807,1.807h1.807l-1.2,1.807,3.376,4.517s-.365-4.517,3.249-4.517,7.83-4.819,7.83-4.819l9.035,6.626s-.6-3.6,1.506-3.605C468.015,172.693,468.919,163.649,462.293,163.047Z" transform="translate(-83.315 -88.833)" fill="#2f2e41"/>
      <path id="Path_113" data-name="Path 113" d="M504.155,259.72l-1.2,12.649s0,18.672-6.626,16.865-1.2-17.467-1.2-17.467l.915-11.327Z" transform="translate(-83.315 -88.833)" fill="#fbbebe"/>
      <path id="Path_114" data-name="Path 114" d="M490.9,200.693s7.83-3.012,10.24,6.023,5.421,27.1,5.421,27.1a27.1,27.1,0,0,1,0,19.877l-1.807,9.035-10.24-1.2-2.409-20.479-2.41-25.9Z" transform="translate(-83.315 -88.833)" fill="#2f2e41"/>
    </g>
  </g>
</svg>
